<svg width="300" height="71" viewBox="0 0 300 71" fill="none" xmlns="http://www.w3.org/2000/svg">
<path d="M130.297 59.7028H130.658V61.036L132.079 59.7028H132.56L130.853 61.2973L132.379 62.9235H132.988V63.7891H132.656V63.2549H132.221L130.658 61.5985V63.2549H130.297V59.7031L130.297 59.7028ZM134.981 59.7028L136.638 63.2547H136.256L135.701 62.087H134.162L133.61 63.2547H133.215L134.892 59.7028H134.981H134.981ZM134.936 60.4481L134.325 61.7407H135.545L134.936 60.4481ZM137.259 60.0483C137.509 59.7591 137.817 59.6141 138.185 59.6141C138.477 59.6141 138.718 59.6983 138.909 59.8667C139.099 60.0339 139.194 60.2515 139.194 60.5187C139.194 60.8963 139.016 61.1666 138.66 61.3308C139.128 61.4758 139.362 61.7891 139.362 62.2723C139.362 62.5941 139.258 62.8537 139.048 63.0497C138.838 63.2459 138.551 63.3442 138.186 63.3442C137.932 63.3442 137.71 63.2913 137.523 63.1857C137.335 63.0801 137.158 62.8957 136.992 62.6319L137.267 62.4694C137.432 62.7113 137.586 62.8658 137.731 62.9343C137.875 63.0027 138.025 63.0373 138.18 63.0373C138.407 63.0373 138.6 62.9723 138.758 62.8419C138.917 62.7115 138.996 62.5204 138.996 62.2675C138.996 62.1338 138.969 62.0175 138.915 61.9184C138.86 61.8196 138.784 61.7396 138.685 61.6785C138.586 61.6177 138.492 61.5785 138.403 61.5622C138.314 61.5464 138.167 61.5383 137.964 61.5383H137.903V61.2266H138.021C138.549 61.2266 138.813 61.0129 138.813 60.5866C138.813 60.3889 138.753 60.2321 138.632 60.1153C138.512 59.999 138.36 59.9404 138.176 59.9404C137.937 59.9404 137.712 60.0483 137.502 60.2648L137.259 60.0483ZM141.514 59.7028L143.171 63.2547H142.79L142.235 62.087H140.696L140.144 63.2547H139.749L141.426 59.7028H141.515H141.514ZM141.47 60.4481L140.859 61.7407H142.078L141.47 60.4481ZM143.719 59.7028H144.08V61.036L145.501 59.7028H145.982L144.275 61.2973L145.801 62.9235H146.41V63.7891H146.078V63.2549H145.643L144.08 61.5985V63.2549H143.719V59.7031L143.719 59.7028ZM150.258 60.3585L149.978 60.5734C149.823 60.3723 149.638 60.22 149.421 60.1161C149.205 60.0122 148.968 59.9604 148.708 59.9604C148.425 59.9604 148.163 60.0285 147.921 60.1648C147.68 60.3008 147.493 60.4838 147.361 60.713C147.228 60.9425 147.161 61.201 147.161 61.487C147.161 61.9206 147.31 62.2827 147.606 62.5724C147.903 62.8627 148.277 63.0072 148.73 63.0072C149.227 63.0072 149.643 62.8129 149.978 62.4241L150.258 62.6366C150.081 62.8616 149.86 63.0365 149.595 63.1592C149.33 63.2823 149.034 63.3439 148.708 63.3439C148.086 63.3439 147.596 63.137 147.237 62.7231C146.936 62.3742 146.785 61.9522 146.785 61.4586C146.785 60.9391 146.968 60.501 147.332 60.1468C147.697 59.7915 148.154 59.6144 148.703 59.6144C149.034 59.6144 149.334 59.6797 149.601 59.8098C149.868 59.941 150.087 60.124 150.258 60.3591V60.3585ZM150.619 60.0491V59.7025H152.558V60.0491H151.767V63.2547H151.41V60.0491H150.619ZM154.531 59.7025L156.189 63.2544H155.807L155.252 62.0868H153.713L153.161 63.2544H152.766L154.443 59.7025H154.532H154.531ZM154.487 60.4478L153.876 61.7404H155.095L154.487 60.4478ZM156.731 59.7025H157.087V61.1914H158.898V59.7025H159.254V63.2544H158.898V61.5377H157.087V63.2544H156.731V59.7025ZM163.543 61.6058V63.2547H163.186V61.6058L163.078 61.5065L161.627 63.2547H161.156L162.848 61.2857L161.289 59.7028H161.766L163.186 61.2041V59.7028H163.543V61.2041L164.972 59.7028H165.445L163.886 61.2857L165.579 63.2547H165.108L163.652 61.5065L163.543 61.6058ZM167.804 59.6138C168.341 59.6138 168.792 59.7937 169.154 60.1522C169.516 60.5109 169.697 60.9526 169.697 61.4769C169.697 61.9972 169.516 62.4384 169.155 62.7999C168.793 63.1623 168.353 63.3434 167.833 63.3434C167.307 63.3434 166.862 63.1629 166.5 62.8025C166.139 62.4424 165.957 62.0062 165.957 61.4941C165.957 61.1528 166.04 60.8372 166.205 60.5452C166.37 60.2541 166.594 60.026 166.88 59.861C167.164 59.696 167.473 59.6135 167.804 59.6135L167.804 59.6138ZM167.822 59.9604C167.56 59.9604 167.312 60.0285 167.077 60.1654C166.841 60.3025 166.658 60.4864 166.526 60.7178C166.394 60.9504 166.328 61.2083 166.328 61.4938C166.328 61.915 166.474 62.2712 166.766 62.5615C167.058 62.8526 167.41 62.9976 167.822 62.9976C168.097 62.9976 168.352 62.9309 168.587 62.7971C168.82 62.6637 169.003 62.4804 169.134 62.2489C169.265 62.0172 169.331 61.7599 169.331 61.4763C169.331 61.1942 169.265 60.94 169.134 60.7119C169.003 60.4844 168.818 60.3025 168.581 60.1654C168.342 60.0285 168.09 59.9604 167.822 59.9604ZM173.289 63.2549H172.903L171.724 60.5064L170.53 63.2549H170.143L171.686 59.7031H171.766L173.289 63.2549ZM175.337 59.7031H177.116V60.0545H175.689V61.3111H176.624V61.6424H175.689V63.2552H175.337V61.6424H174.905V61.3111H175.337V59.7031ZM177.734 59.7031H178.09V61.2269H178.347C178.812 61.2269 179.146 61.2488 179.349 61.2944C179.552 61.3398 179.715 61.4428 179.838 61.6044C179.963 61.7669 180.025 61.9755 180.025 62.2309C180.025 62.4823 179.965 62.6901 179.843 62.8551C179.723 63.0201 179.568 63.1282 179.383 63.1795C179.195 63.2296 178.882 63.2552 178.443 63.2552H177.734V59.7033L177.734 59.7031ZM178.09 62.9086H178.47C178.87 62.9086 179.13 62.8898 179.251 62.8517C179.373 62.814 179.47 62.7439 179.541 62.6406C179.614 62.5384 179.649 62.4063 179.649 62.2461C179.649 62.0687 179.604 61.9251 179.514 61.8139C179.423 61.7036 179.308 61.6357 179.169 61.6101C179.03 61.5856 178.77 61.5732 178.39 61.5732H178.09V62.9086ZM180.44 59.7031H180.797V63.2549H180.44V59.7031ZM184.536 63.2549H184.149L182.971 60.5064L181.777 63.2549H181.39L182.933 59.7031H183.013L184.536 63.2549ZM185.131 59.7031H185.487V61.2269H185.744C186.208 61.2269 186.543 61.2488 186.745 61.2944C186.948 61.3398 187.111 61.4428 187.235 61.6044C187.36 61.7669 187.421 61.9755 187.421 62.2309C187.421 62.4823 187.361 62.6901 187.24 62.8551C187.12 63.0201 186.965 63.1282 186.779 63.1795C186.592 63.2296 186.279 63.2552 185.839 63.2552H185.131V59.7033L185.131 59.7031ZM185.487 62.9086H185.866C186.266 62.9086 186.527 62.8898 186.648 62.8517C186.769 62.814 186.867 62.7439 186.938 62.6406C187.01 62.5384 187.046 62.4063 187.046 62.2461C187.046 62.0687 187 61.9251 186.91 61.8139C186.82 61.7036 186.705 61.6357 186.566 61.6101C186.426 61.5856 186.167 61.5732 185.786 61.5732H185.487V62.9086ZM187.837 59.7031H188.193V63.2549H187.837V59.7031ZM188.901 63.2549L189.392 59.7031H189.466L190.911 62.6169L192.347 59.7031H192.401L192.912 63.2549H192.568L192.212 60.7119L190.954 63.2549H190.86L189.59 60.6922L189.249 63.2549H188.9H188.901ZM196.4 63.2549H196.029V60.5261L193.685 63.2549H193.605V59.7031H193.961V62.4725L196.32 59.7031H196.4V63.2549ZM196.987 61.7708H198.312V62.0679H196.987V61.7708ZM198.975 60.0483C199.224 59.7591 199.533 59.6141 199.901 59.6141C200.192 59.6141 200.434 59.6983 200.625 59.8667C200.815 60.0339 200.91 60.2515 200.91 60.5187C200.91 60.8963 200.732 61.1666 200.376 61.3308C200.844 61.4758 201.078 61.7891 201.078 62.2723C201.078 62.5941 200.974 62.8537 200.764 63.0497C200.553 63.2459 200.267 63.3442 199.902 63.3442C199.648 63.3442 199.426 63.2913 199.239 63.1857C199.05 63.0801 198.873 62.8957 198.708 62.6319L198.983 62.4694C199.148 62.7113 199.302 62.8658 199.447 62.9343C199.591 63.0027 199.741 63.0373 199.896 63.0373C200.122 63.0373 200.316 62.9723 200.473 62.8419C200.633 62.7115 200.712 62.5204 200.712 62.2675C200.712 62.1338 200.685 62.0175 200.63 61.9184C200.576 61.8196 200.5 61.7396 200.401 61.6785C200.302 61.6177 200.208 61.5785 200.119 61.5622C200.03 61.5464 199.883 61.5383 199.68 61.5383H199.619V61.2266H199.737C200.265 61.2266 200.529 61.0129 200.529 60.5866C200.529 60.3889 200.469 60.2321 200.348 60.1153C200.228 59.999 200.076 59.9404 199.892 59.9404C199.652 59.9404 199.428 60.0483 199.218 60.2648L198.975 60.0483ZM201.78 59.7028H203.814V60.0494H202.137V61.1624H203.799V61.5087H202.137V62.9086H203.799V63.2552H201.78V59.7033V59.7028ZM204.428 59.7028H205.136C205.542 59.7028 205.816 59.72 205.958 59.7557C206.161 59.8058 206.327 59.9083 206.455 60.064C206.585 60.2192 206.649 60.4148 206.649 60.6494C206.649 60.8862 206.586 61.0807 206.46 61.2345C206.335 61.3882 206.162 61.4913 205.942 61.545C205.78 61.5836 205.479 61.6025 205.038 61.6025H204.784V63.2549H204.428V59.7031L204.428 59.7028ZM204.784 60.0494V61.2564L205.386 61.2638C205.629 61.2638 205.807 61.2412 205.92 61.1967C206.033 61.1523 206.122 61.0813 206.187 60.9825C206.251 60.8836 206.283 60.7719 206.283 60.6499C206.283 60.5311 206.251 60.4216 206.187 60.3225C206.122 60.2234 206.037 60.1533 205.931 60.1113C205.825 60.0694 205.653 60.0488 205.412 60.0488H204.784V60.0494ZM207.005 60.0494V59.7028H208.944V60.0494H208.152V63.2549H207.796V60.0494H207.005ZM209.111 60.0494V59.7028H211.051V60.0494H210.259V63.2549H209.903V60.0494H209.111ZM211.574 59.7028H213.607V60.0494H211.93V61.1624H213.592V61.5087H211.93V62.9086H213.592V63.2552H211.574V59.7033V59.7028ZM213.952 59.7126H214.35L215.428 62.125L216.412 59.7028H216.801L215.452 62.8943C215.327 63.1938 215.104 63.3436 214.783 63.3436C214.655 63.3436 214.533 63.3175 214.419 63.2654C214.304 63.2124 214.16 63.0888 213.984 62.894L214.243 62.6814C214.422 62.8568 214.54 62.9568 214.6 62.9807C214.66 63.0046 214.72 63.0173 214.781 63.0173C214.874 63.0173 214.955 62.9923 215.023 62.9427C215.092 62.8926 215.167 62.769 215.249 62.5699L213.953 59.7124L213.952 59.7126ZM221.587 63.2547H221.215V60.5258L218.871 63.2547H218.791V59.7028H219.148V62.4722L221.507 59.7028H221.587V63.2547ZM222.441 59.7028H222.797V61.1917H224.608V59.7028H224.964V63.2547H224.608V61.538H222.797V63.2547H222.441V59.7028ZM229.135 60.3585L228.854 60.5734C228.7 60.3723 228.514 60.22 228.298 60.1161C228.082 60.0122 227.844 59.9604 227.585 59.9604C227.301 59.9604 227.04 60.0285 226.798 60.1648C226.556 60.3008 226.37 60.4838 226.237 60.713C226.105 60.9425 226.038 61.201 226.038 61.487C226.038 61.9206 226.186 62.2827 226.483 62.5724C226.78 62.8627 227.154 63.0072 227.607 63.0072C228.104 63.0072 228.52 62.8129 228.854 62.4241L229.135 62.6366C228.957 62.8616 228.736 63.0365 228.472 63.1592C228.207 63.2823 227.911 63.3439 227.585 63.3439C226.963 63.3439 226.472 63.137 226.114 62.7231C225.812 62.3742 225.662 61.9522 225.662 61.4586C225.662 60.9391 225.844 60.501 226.208 60.1468C226.574 59.7915 227.031 59.6144 227.58 59.6144C227.911 59.6144 228.21 59.6797 228.477 59.8098C228.745 59.941 228.964 60.124 229.135 60.3591V60.3585ZM229.496 60.0491V59.7025H231.435V60.0491H230.643V63.2547H230.287V60.0491H229.496ZM234.754 63.2547H234.383V60.5258L232.038 63.2547H231.958V59.7028H232.315V62.4722L234.674 59.7028H234.754V63.2547ZM235.261 60.0491V59.7025H237.201V60.0491H236.409V63.2547H236.053V60.0491H235.261ZM237.45 59.7124H237.848L238.926 62.1248L239.91 59.7025H240.299L238.949 62.894C238.824 63.1936 238.602 63.3434 238.281 63.3434C238.152 63.3434 238.031 63.3172 237.917 63.2651C237.802 63.2122 237.657 63.0885 237.482 62.8937L237.741 62.6811C237.919 62.8565 238.038 62.9565 238.098 62.9804C238.157 63.0044 238.218 63.017 238.279 63.017C238.372 63.017 238.453 62.992 238.521 62.9424C238.59 62.8923 238.665 62.7687 238.746 62.5696L237.451 59.7121L237.45 59.7124ZM240.564 60.0491V59.7025H242.503V60.0491H241.712V63.2547H241.355V60.0491H240.564ZM243.022 59.7025H243.378V61.2263H243.635C244.1 61.2263 244.434 61.2483 244.636 61.2939C244.839 61.3392 245.002 61.4423 245.126 61.6039C245.251 61.7663 245.313 61.975 245.313 62.2304C245.313 62.4818 245.252 62.6896 245.131 62.8546C245.011 63.0196 244.856 63.1277 244.671 63.1789C244.483 63.229 244.17 63.2547 243.73 63.2547H243.022V59.7028L243.022 59.7025ZM243.378 62.9081H243.757C244.157 62.9081 244.418 62.8892 244.539 62.8512C244.66 62.8135 244.758 62.7434 244.829 62.64C244.901 62.5378 244.937 62.4058 244.937 62.2456C244.937 62.0682 244.891 61.9246 244.801 61.8134C244.711 61.703 244.596 61.6351 244.457 61.6095C244.317 61.585 244.058 61.5726 243.677 61.5726H243.378V62.9081ZM245.728 59.7025H246.084V63.2544H245.728V59.7025Z" fill="white"/>
<path fill-rule="evenodd" clip-rule="evenodd" d="M33.4062 56.5699C33.4062 55.7976 33.8185 55.0836 34.488 54.697L40.3318 51.3225L47.995 46.8981C48.6643 46.5112 49.0768 45.7974 49.0768 45.0246V36.1777V29.5396C49.0768 28.7735 49.4819 28.0648 50.1422 27.6757L59.9154 21.9209C61.3573 21.0717 63.1759 22.1115 63.1759 23.7848V36.1777V53.1656C63.1759 53.9385 62.764 54.6522 62.0944 55.0391L47.3815 63.5335L36.6512 69.7286C35.2094 70.5609 33.4065 69.5203 33.4065 67.8551V56.5694L33.4062 56.5699Z" fill="white"/>
<path fill-rule="evenodd" clip-rule="evenodd" d="M30.4817 0.342837C31.1662 -0.0527554 32.0097 -0.0527554 32.6945 0.342837L47.3812 8.8223L57.9941 14.949C59.4618 15.7968 59.4711 17.9122 58.0104 18.7724L48.4317 24.4126C47.745 24.8169 46.8933 24.8208 46.2026 24.4221L40.3315 21.0322L32.6945 16.6226C32.0097 16.2273 31.1662 16.2273 30.4817 16.6226L22.8433 21.0322L15.2051 25.4422C14.5206 25.8373 14.0986 26.5682 14.0986 27.3588V36.1781V44.9963C14.0986 45.7869 14.5203 46.5173 15.2051 46.9129L22.8433 51.323L28.6209 54.6578C29.3056 55.0531 29.7274 55.784 29.7274 56.5746V67.7447C29.7274 69.4484 27.8835 70.513 26.4084 69.6612L15.7947 63.5345L1.10653 55.0545C0.422059 54.6592 0 53.9282 0 53.1379V36.1787V19.2195C0 18.4288 0.421777 17.6982 1.10653 17.3029L15.7947 8.82286L30.482 0.3434L30.4817 0.342837Z" fill="#00A3BC"/>
<path fill-rule="evenodd" clip-rule="evenodd" d="M33.207 41.582V51.0895C33.207 52.0825 34.2705 52.7124 35.1416 52.2354L42.5275 48.1886C42.9459 47.9591 43.2061 47.5201 43.2061 47.0429V37.5352C43.2061 36.5421 42.1426 35.9126 41.272 36.3892L33.8859 40.4361C33.4675 40.6656 33.207 41.1048 33.207 41.582Z" fill="#6F6A66"/>
<path fill-rule="evenodd" clip-rule="evenodd" d="M40.6687 32.3444L33.1575 36.5509C32.7648 36.771 32.5215 37.1858 32.5215 37.636C32.5215 38.5798 33.532 39.1798 34.3604 38.7279L41.8718 34.6323C42.2713 34.4144 42.52 33.9954 42.52 33.5404V33.4295C42.52 32.4792 41.4976 31.8803 40.6687 32.3444Z" fill="#9B9B9B"/>
<path fill-rule="evenodd" clip-rule="evenodd" d="M49.8483 64.4287L61.2019 57.9308C62.1496 57.388 63.3291 58.0724 63.3291 59.1643V59.2057C63.3291 59.7168 63.0549 60.1889 62.6105 60.4412L51.2572 66.8977C50.2833 67.4515 49.0813 66.7135 49.1345 65.5946C49.1576 65.1095 49.4271 64.6697 49.8483 64.4284V64.4287Z" fill="#696866"/>
<path d="M215.043 46.2661V50.1877V50.2612C215.043 51.0183 215.299 51.6659 215.813 52.2037C216.375 52.7412 217.034 53.01 217.792 53.01C217.792 53.01 217.816 53.01 217.865 53.01H234.871C235.58 53.01 236.191 52.7778 236.704 52.3137C237.314 51.7762 237.62 51.1042 237.62 50.2978V50.2246C237.596 49.394 237.266 48.7098 236.63 48.1723C236.142 47.7328 235.567 47.5126 234.908 47.5126H234.871H220.54H217.792C217.205 47.5126 216.655 47.3904 216.142 47.146C215.727 46.9261 215.361 46.6327 215.043 46.2664L215.043 46.2661Z" fill="white"/>
<path d="M217.755 27.354C216.924 27.354 216.24 27.6719 215.702 28.3071C215.263 28.8201 215.043 29.4066 215.043 30.0663V30.1029V43.9939C215.043 44.6291 215.25 45.1911 215.666 45.6796C216.203 46.3638 216.912 46.7062 217.792 46.7062C218.451 46.7062 219.037 46.4981 219.551 46.0828C220.186 45.5701 220.516 44.9104 220.54 44.104V30.1032C220.54 29.3948 220.308 28.784 219.844 28.2705C219.307 27.6598 218.635 27.3543 217.828 27.3543H217.755L217.755 27.354Z" fill="white"/>
<path d="M189.278 37.4331C188.472 37.4331 187.8 37.7262 187.262 38.3127C186.969 38.6061 186.762 38.9603 186.639 39.3759C186.566 39.6445 186.529 39.9255 186.529 40.2189C186.529 40.4878 186.566 40.7443 186.639 40.9884C186.737 41.3307 186.896 41.6357 187.116 41.9048C187.653 42.5888 188.374 42.9311 189.278 42.9311C190.157 42.9311 190.866 42.6011 191.403 41.9412C191.673 41.6236 191.856 41.2818 191.953 40.9149C192.002 40.6705 192.026 40.4267 192.026 40.1823C192.026 39.9621 192.002 39.7546 191.953 39.5589C191.856 39.0949 191.66 38.6917 191.367 38.3499C190.805 37.7389 190.109 37.4334 189.278 37.4334V37.4331Z" fill="white"/>
<path d="M186.823 37.5432C187.165 37.2256 187.555 36.9812 187.995 36.81C188.41 36.6391 188.838 36.5535 189.278 36.5535C189.84 36.5535 190.377 36.6881 190.891 36.9564C191.477 37.2495 191.953 37.6651 192.32 38.2023C192.76 36.6388 193.627 35.3561 194.922 34.3543C196.217 33.3522 197.683 32.8516 199.32 32.8516C201.348 32.8516 203.071 33.5662 204.488 34.9954C205.905 36.4249 206.613 38.1536 206.613 40.1817C206.613 42.2095 205.905 43.9383 204.488 45.3678C203.071 46.797 201.348 47.5116 199.32 47.5116C197.683 47.5116 196.211 47.0169 194.904 46.0275C193.597 45.0375 192.723 43.7488 192.283 42.1608C192.015 42.5758 191.672 42.9303 191.257 43.2234C190.646 43.5903 189.986 43.773 189.278 43.773C188.764 43.773 188.264 43.6756 187.775 43.4799C187.408 43.3087 187.091 43.0891 186.822 42.8202C187.433 45.7766 188.911 48.2141 191.257 50.1323C193.603 52.0506 196.29 53.0093 199.32 53.0093C201.641 53.0093 203.785 52.4349 205.752 51.2867C207.719 50.138 209.271 48.5804 210.407 46.6137C211.543 44.647 212.111 42.5023 212.111 40.1814C212.111 37.8602 211.543 35.7159 210.407 33.7489C209.271 31.7822 207.719 30.2246 205.752 29.0759C203.786 27.9277 201.641 27.3533 199.32 27.3533C196.314 27.3533 193.639 28.3123 191.294 30.2303C188.948 32.1485 187.457 34.5857 186.822 37.5424L186.823 37.5432Z" fill="white"/>
<path d="M164.098 40.2185C163.414 40.2185 162.816 40.4505 162.302 40.9146C161.838 41.3054 161.545 41.7944 161.423 42.3809C161.374 42.5273 161.35 42.7109 161.35 42.9305C161.35 43.0524 161.361 43.1873 161.386 43.3334C161.435 43.7487 161.545 44.1032 161.716 44.3966C161.936 44.7632 162.229 45.0684 162.596 45.3128C163.035 45.6059 163.536 45.7526 164.098 45.7526C164.929 45.7526 165.613 45.4468 166.15 44.8361C166.615 44.2989 166.847 43.6874 166.847 43.0035C166.847 42.2216 166.566 41.5498 166.004 40.9878C165.491 40.4748 164.855 40.2183 164.098 40.2183L164.098 40.2185Z" fill="white"/>
<path d="M180.885 27.354H180.812C179.981 27.354 179.297 27.6719 178.759 28.3071C178.32 28.8201 178.1 29.4066 178.1 30.0663V30.1029V39.0092C178.1 39.0824 178.1 39.168 178.1 39.266C178.1 39.3392 178.1 39.4431 178.1 39.5777C178.1 39.712 178.1 39.8159 178.1 39.8891C178.1 40.1827 178.1 40.4268 178.1 40.6222C178.002 42.7235 177.318 44.4461 176.047 45.79C174.972 46.9388 173.726 47.5126 172.309 47.5126C171.356 47.5126 170.452 47.2192 169.596 46.6327C168.741 46.0468 168.045 45.2404 167.508 44.2141C167.238 44.9225 166.793 45.4969 166.17 45.9367C165.547 46.3765 164.856 46.5964 164.099 46.5964C163.464 46.5964 162.877 46.4376 162.34 46.12C163.219 48.0506 164.454 49.6265 166.042 50.8479C167.948 52.2895 170.036 53.0103 172.309 53.0103C173.897 53.0103 175.394 52.662 176.799 51.9657C178.204 51.2694 179.431 50.2978 180.482 49.0519C182.413 46.7552 183.451 44.0429 183.597 40.9151C183.597 40.5975 183.597 40.1943 183.597 39.706C183.597 39.6328 183.597 39.5287 183.597 39.3944C183.597 39.2601 183.597 39.1562 183.597 39.0824V30.1032C183.597 29.3948 183.365 28.784 182.901 28.2705C182.363 27.6598 181.692 27.3543 180.885 27.3543L180.885 27.354Z" fill="white"/>
<path d="M146.872 47.512C146.066 47.512 145.394 47.8296 144.857 48.4648C144.417 48.978 144.197 49.5766 144.197 50.2611C144.197 50.7251 144.319 51.1649 144.564 51.5802C145.052 52.5091 145.81 52.9855 146.836 53.0097H155.706C156.414 53.0097 157.025 52.7774 157.538 52.3134C158.125 51.7759 158.43 51.1038 158.455 50.2974V50.2242C158.43 49.3936 158.1 48.7094 157.465 48.1719C156.976 47.7324 156.39 47.5122 155.706 47.5122H146.873L146.872 47.512Z" fill="white"/>
<path d="M138.699 27.354H138.626C137.869 27.354 137.234 27.6108 136.72 28.1235C136.158 28.6855 135.877 29.3452 135.877 30.1026C135.877 30.909 136.17 31.5811 136.756 32.1183C137.294 32.6071 137.917 32.8515 138.626 32.8515H138.663H147.386C148.339 32.8515 149.084 32.4486 149.621 31.6422C149.914 31.1779 150.061 30.6646 150.061 30.1026C150.061 29.3207 149.792 28.6613 149.254 28.1235C148.766 27.635 148.179 27.3785 147.495 27.354H138.699H138.699Z" fill="white"/>
<path d="M155.009 27.354H149.658C150.025 27.6719 150.317 28.0627 150.537 28.5267C150.782 29.0152 150.904 29.5406 150.904 30.1026C150.904 30.3715 150.88 30.628 150.83 30.8724C150.66 31.5811 150.085 32.5094 149.108 33.6579L136.573 48.3913L136.536 48.4645C136.097 48.9778 135.877 49.5764 135.877 50.2609C135.877 50.3096 135.877 50.3707 135.877 50.4442C135.926 51.2016 136.244 51.8368 136.83 52.3503C137.343 52.7899 137.93 53.0098 138.589 53.0098C138.638 53.0098 138.767 53.0098 138.974 53.0098C139.182 53.0098 139.322 53.0098 139.395 53.0098H144.637C144.197 52.6189 143.867 52.1547 143.647 51.6172C143.476 51.1774 143.39 50.7252 143.39 50.2612C143.39 49.9678 143.427 49.6747 143.5 49.3813C143.672 48.7461 144.245 47.8541 145.223 46.7059L157.794 31.8987C158.234 31.3857 158.454 30.7871 158.454 30.1026C158.454 30.0784 158.454 30.066 158.454 30.066C158.43 29.2351 158.112 28.5636 157.501 28.0503C157.501 28.0258 157.489 28.0137 157.464 28.0137C156.951 27.5739 156.365 27.354 155.705 27.354C155.387 27.354 155.155 27.354 155.009 27.354Z" fill="white"/>
<path d="M115.205 33.8411C114.203 33.8659 113.458 34.3057 112.97 35.1608L105.236 48.9412C105.016 49.3565 104.906 49.7968 104.906 50.2608C104.906 50.9937 105.163 51.6292 105.676 52.1667C106.213 52.7287 106.873 53.0097 107.655 53.0097C108.168 53.0097 108.645 52.8754 109.084 52.6065C109.524 52.3379 109.866 51.9837 110.111 51.5439L117.807 37.763C117.978 37.3964 118.064 37.0177 118.064 36.6266C118.064 36.358 118.028 36.0891 117.954 35.8202C117.734 35.1118 117.294 34.5743 116.635 34.2077C116.219 33.9633 115.767 33.8408 115.279 33.8408C115.254 33.8408 115.23 33.8408 115.205 33.8408V33.8411Z" fill="white"/>
<path d="M118.944 27.354C118.382 27.354 117.869 27.5128 117.405 27.8304C116.99 28.0993 116.672 28.4535 116.452 28.8936L114.033 33.2549C114.424 33.1082 114.84 33.0345 115.279 33.0345C115.401 33.0345 115.523 33.0345 115.645 33.0345C116.11 33.0838 116.562 33.2181 117.001 33.4377C117.026 33.4622 117.051 33.4867 117.075 33.5112C117.344 33.6579 117.588 33.8409 117.808 34.061C118.052 34.3054 118.26 34.5738 118.431 34.8669L127.777 51.5437C128.022 51.9832 128.363 52.3377 128.803 52.6063C129.243 52.8755 129.719 53.0095 130.233 53.0095C130.966 53.0095 131.601 52.7527 132.139 52.2397C132.701 51.678 132.982 51.018 132.982 50.2609C132.982 49.7969 132.859 49.3565 132.615 48.9412L121.4 28.8567C121.204 28.4901 120.936 28.1728 120.593 27.9036C120.373 27.7324 120.117 27.5981 119.824 27.5007C119.555 27.4027 119.262 27.354 118.944 27.354H118.944Z" fill="white"/>
<path d="M79.1412 37.3962C78.3348 37.3962 77.663 37.6896 77.1252 38.2761C76.8321 38.5937 76.6249 38.96 76.5024 39.3756C76.4292 39.6442 76.3926 39.9131 76.3926 40.182C76.3926 40.4751 76.4292 40.744 76.5024 40.9881C76.6001 41.3305 76.7592 41.6354 76.9788 41.9046C77.516 42.5885 78.2368 42.9309 79.1412 42.9309C80.0208 42.9309 80.7295 42.5885 81.2667 41.9046C81.5358 41.6115 81.7189 41.2815 81.8163 40.9146C81.8655 40.646 81.8898 40.3895 81.8898 40.1451C81.8898 39.9497 81.8655 39.7543 81.8163 39.5586C81.7189 39.0946 81.5232 38.6914 81.2303 38.3496C80.6684 37.7144 79.9721 37.3965 79.1412 37.3965V37.3962Z" fill="white"/>
<path d="M89.184 27.354C86.1783 27.354 83.503 28.3071 81.1573 30.2127C78.8116 32.1186 77.321 34.5617 76.6858 37.5431C77.0282 37.2008 77.419 36.9566 77.8585 36.81C78.2738 36.639 78.7018 36.5535 79.1413 36.5535C79.7033 36.5535 80.2408 36.688 80.7541 36.9564C81.3403 37.2495 81.8167 37.6651 82.1833 38.2023C82.6228 36.614 83.4903 35.3253 84.7855 34.3359C86.0806 33.3462 87.5464 32.8515 89.1837 32.8515C91.2115 32.8515 92.9341 33.5661 94.3515 34.9953C95.7686 36.4248 96.477 38.1536 96.477 40.1816C96.477 41.2566 96.2571 42.2826 95.8173 43.2602L94.4613 41.9774V41.9405C93.9483 41.4765 93.3494 41.2321 92.6655 41.2079C92.6162 41.2079 92.5799 41.2079 92.5551 41.2079C91.798 41.2079 91.1383 41.4889 90.5763 42.0509C90.5763 42.0509 90.5704 42.0571 90.558 42.0689C90.5456 42.0813 90.5397 42.0875 90.5397 42.0875C90.0512 42.625 89.8068 43.2481 89.8068 43.9568C89.8068 44.0545 89.8189 44.1525 89.8431 44.2499C89.9163 44.9099 90.1855 45.4716 90.6495 45.9362L90.6864 45.9728L91.8225 47.0357C90.9674 47.3533 90.0875 47.5121 89.1837 47.5121C87.5464 47.5121 86.0742 47.0114 84.7674 46.0094C83.4602 45.0076 82.5868 43.7248 82.1467 42.1613C81.8778 42.5763 81.536 42.9184 81.1204 43.1876C80.5097 43.5784 79.8497 43.7735 79.1413 43.7735C78.628 43.7735 78.1271 43.664 77.6386 43.4441C77.2718 43.2971 76.9544 43.0893 76.6855 42.8207C77.2963 45.7771 78.7747 48.2145 81.1204 50.1328C83.4661 52.0511 86.1538 53.0098 89.1837 53.0098C91.6758 53.0098 93.9607 52.3504 96.0372 51.0307L97.2834 52.2034L97.32 52.2766C97.8577 52.7651 98.4929 53.0098 99.2258 53.0098C99.2503 53.0098 99.2627 53.0098 99.2627 53.0098C100.045 52.9856 100.692 52.6919 101.205 52.1299C101.718 51.6172 101.975 50.9938 101.975 50.2609C101.975 49.479 101.694 48.8193 101.132 48.2818L101.059 48.245L99.9224 47.1455C101.291 45.0442 101.975 42.723 101.975 40.1819C101.975 37.8607 101.407 35.7164 100.27 33.7494C99.134 31.7827 97.5827 30.2251 95.6157 29.0763C93.649 27.9281 91.5043 27.3538 89.1834 27.3538L89.184 27.354Z" fill="white"/>
<path d="M253.307 27.354C250.986 27.354 248.841 27.9284 246.874 29.0766C244.908 30.2254 243.356 31.7829 242.22 33.7496C241.084 35.7163 240.516 37.861 240.516 40.1822C240.516 42.5031 241.084 44.6474 242.22 46.6144C243.356 48.5811 244.908 50.1387 246.874 51.2875C248.841 52.4357 250.986 53.01 253.307 53.01C255.286 53.01 257.137 52.5885 258.859 51.7458C260.582 50.9026 262.042 49.7482 263.239 48.2821C263.263 48.2331 263.312 48.172 263.386 48.0988C263.703 47.6345 263.862 47.1333 263.862 46.5961C263.862 46.3027 263.813 46.0217 263.716 45.7531C263.544 45.1914 263.202 44.7265 262.689 44.3602C262.201 43.9939 261.663 43.8106 261.077 43.8106C260.881 43.8106 260.686 43.8351 260.49 43.8841C259.904 44.0063 259.415 44.287 259.024 44.7268C259 44.7758 258.939 44.8614 258.841 44.9836C257.375 46.6696 255.53 47.5126 253.307 47.5126C251.303 47.5126 249.586 46.798 248.157 45.3688C246.728 43.9393 246.013 42.2105 246.013 40.1827C246.013 38.1546 246.728 36.4259 248.157 34.9964C249.586 33.5672 251.303 32.8526 253.307 32.8526C254.553 32.8526 255.713 33.1457 256.788 33.7322C256.739 33.4878 256.715 33.2437 256.715 32.9993C256.715 32.0217 257.051 31.1849 257.723 30.4886C258.395 29.7923 259.207 29.4195 260.16 29.3708C258.084 28.0267 255.799 27.3548 253.307 27.3548V27.354ZM260.344 30.2127C259.513 30.2127 258.829 30.5182 258.291 31.1289C257.803 31.6422 257.558 32.2653 257.558 32.9984C257.607 33.4869 257.705 33.878 257.852 34.1709C257.999 34.4645 258.243 34.7939 258.585 35.1608C259.098 35.5516 259.684 35.747 260.344 35.747C261.15 35.747 261.822 35.4536 262.36 34.8672C262.848 34.3299 263.093 33.7066 263.093 32.9982C263.093 32.363 262.897 31.801 262.506 31.3119C261.896 30.6035 261.175 30.2369 260.344 30.2124L260.344 30.2127ZM263.349 37.5062H255.029C254.125 37.5062 253.404 37.861 252.867 38.5694C252.476 39.0582 252.281 39.6202 252.281 40.2554C252.281 40.8661 252.452 41.4039 252.794 41.8679C253.331 42.6255 254.076 43.0042 255.029 43.0042H260.051H260.93C261.224 42.9797 261.517 42.9921 261.81 43.0411C262.299 43.163 262.751 43.3708 263.166 43.6642C263.533 43.9328 263.838 44.2625 264.082 44.6536C264.4 45.0934 264.595 45.5822 264.669 46.1197C265.597 44.3115 266.074 42.3814 266.098 40.3289C266.098 40.3044 266.098 40.2796 266.098 40.2554C266.098 40.2554 266.098 40.2309 266.098 40.1822C266.074 39.4738 265.829 38.8625 265.365 38.3495C264.803 37.7875 264.131 37.5062 263.349 37.5062H263.349ZM288.162 27.354H282.811C283.178 27.6719 283.47 28.0627 283.69 28.5267C283.935 29.0152 284.057 29.5406 284.057 30.1026C284.057 30.3715 284.033 30.628 283.983 30.8724C283.813 31.5811 283.238 32.5094 282.261 33.6579L269.726 48.3913L269.689 48.4645C269.25 48.9778 269.03 49.5764 269.03 50.2609C269.03 50.3096 269.03 50.3707 269.03 50.4442C269.079 51.2016 269.397 51.8368 269.983 52.3503C270.496 52.7899 271.083 53.0098 271.742 53.0098C271.791 53.0098 271.92 53.0098 272.127 53.0098C272.335 53.0098 272.476 53.0098 272.548 53.0098H277.79C277.35 52.619 277.02 52.1547 276.8 51.6172C276.629 51.1774 276.543 50.7252 276.543 50.2612C276.543 49.9678 276.58 49.6747 276.654 49.3813C276.825 48.7461 277.399 47.8541 278.376 46.7059L290.948 31.8987C291.387 31.3857 291.607 30.7871 291.607 30.1026C291.607 30.0784 291.607 30.066 291.607 30.066C291.583 29.2351 291.265 28.5636 290.654 28.0503C290.654 28.0258 290.642 28.0137 290.617 28.0137C290.104 27.5739 289.518 27.354 288.858 27.354C288.54 27.354 288.308 27.354 288.162 27.354ZM271.852 27.354H271.779C271.022 27.354 270.386 27.6108 269.873 28.1235C269.311 28.6855 269.03 29.3452 269.03 30.1026C269.03 30.909 269.323 31.5811 269.909 32.1183C270.447 32.6071 271.07 32.8515 271.779 32.8515H271.816H280.539C281.491 32.8515 282.236 32.4486 282.774 31.6422C283.067 31.1779 283.214 30.6646 283.214 30.1026C283.214 29.3207 282.945 28.6613 282.407 28.1235C281.919 27.635 281.332 27.3785 280.648 27.354H271.852H271.852ZM280.025 47.512C279.219 47.512 278.547 47.8296 278.01 48.4648C277.57 48.9781 277.35 49.5767 277.35 50.2612C277.35 50.7252 277.472 51.165 277.716 51.5803C278.205 52.5091 278.963 52.9855 279.989 53.0098H288.859C289.567 53.0098 290.178 52.7775 290.691 52.3135C291.278 51.776 291.583 51.1039 291.608 50.2975V50.2243C291.583 49.3937 291.253 48.7095 290.618 48.172C290.129 47.7325 289.543 47.5123 288.859 47.5123H280.026L280.025 47.512ZM297.288 27.354H297.215C296.384 27.354 295.7 27.6719 295.163 28.3071C294.723 28.8201 294.503 29.4066 294.503 30.0663V30.1029V37.8362C295.236 37.0059 296.152 36.5903 297.251 36.5903C298.376 36.5903 299.292 37.0177 300 37.8731V30.1029C300 29.3945 299.768 28.7838 299.304 28.2702C298.766 27.6595 298.094 27.354 297.288 27.354ZM297.251 37.433C296.69 37.433 296.182 37.5797 295.731 37.8728C295.278 38.1662 294.943 38.5567 294.723 39.0455C294.576 39.3879 294.503 39.7663 294.503 40.1819C294.503 40.6459 294.6 41.0615 294.796 41.4278C295.016 41.8918 295.346 42.2584 295.785 42.5273C296.225 42.7964 296.714 42.9305 297.251 42.9305C297.936 42.9305 298.534 42.7106 299.047 42.2708C299.365 42.0019 299.609 41.6846 299.78 41.3177C299.927 40.9269 300 40.5358 300 40.145C300 39.8519 299.952 39.5709 299.854 39.3023C299.707 38.838 299.451 38.4348 299.084 38.0927C298.547 37.6529 297.936 37.433 297.251 37.433ZM300 42.4912C299.292 43.3706 298.375 43.8103 297.251 43.8103C296.152 43.8103 295.236 43.3829 294.503 42.5276V50.1877V50.2612C294.503 51.0183 294.772 51.6659 295.309 52.2037C295.847 52.7411 296.494 53.01 297.252 53.01C298.058 53.01 298.73 52.7167 299.268 52.1302C299.756 51.6174 300 50.9941 300 50.2612V50.2243V42.4912H300Z" fill="#00A3BC"/>
</svg>
